<?xml version="1.0" encoding="UTF-8"?>
<svg width="752pt" height="752pt" version="1.1" viewBox="0 0 752 752" xmlns="http://www.w3.org/2000/svg">
 <defs>
  <clipPath id="a">
   <path d="m139.21 149h473.58v455h-473.58z"/>
  </clipPath>
 </defs>
 <path d="m283.47 287.11c-3.6445-2.9141-5.8281-7.2852-5.8281-11.656h-10.93c0 7.2852 3.6445 14.57 9.4727 19.672 4.3711 3.6445 10.199 6.5586 16.027 7.2852v18.215h10.93v-18.215c5.8281-0.73047 11.656-3.6445 16.027-7.2852 5.8281-5.1016 9.4727-12.387 9.4727-19.672 0-7.2852-3.6445-14.57-9.4727-19.672-5.8281-5.1016-13.113-8.0156-21.859-8.0156-5.8281 0-10.93-1.457-14.57-5.1016-3.6445-2.9141-5.8281-7.2852-5.8281-11.656 0-4.3711 2.1875-8.0156 5.8281-11.656 7.2852-6.5586 21.129-6.5586 28.414 0 3.6445 2.9141 5.8281 7.2852 5.8281 11.656h11.66c0-7.2852-3.6445-14.57-9.4727-19.672-4.3711-3.6445-10.199-5.8281-16.027-7.2852v-16.758h-10.93v18.215c-5.8281 0.73047-11.656 2.9141-16.027 7.2852-5.8281 5.1016-9.4727 12.387-9.4727 19.672s3.6445 14.57 9.4727 19.672 13.113 8.0156 21.859 8.0156c5.8281 0 10.93 1.457 14.57 5.1016 3.6445 2.9141 5.8281 7.2852 5.8281 11.656 0 4.3711-2.1875 8.0156-5.8281 11.656-8.0156 5.1016-21.133 5.1016-29.145-1.457z"/>
 <g clip-path="url(#a)">
  <path d="m614.25 545.76v-5.1016h-72.129v-344.62c0-25.5-20.402-46.629-45.902-46.629h-307.46-4.3711c-26.23 0-46.629 21.129-46.629 46.629v187.98l83.059 2.1875v170.49c0 26.23 21.129 46.629 46.629 46.629h306.01c23.316 0 40.801-18.941 40.801-42.988 0.72656-4.3711 0-14.57 0-14.57zm-393.44-171.22-72.129-1.457v-177.77c0-19.672 16.027-35.699 35.699-35.699 19.672 0 35.699 16.027 35.699 35.699l0.003907 179.23zm46.629 217.85c-19.672 0-35.699-16.027-35.699-35.699v-361.38c0-14.57-6.5586-27.688-16.758-36.43h280.5c19.672 0 35.699 16.027 35.699 35.699v344.62h-222.21l-8.0156 1.457 1.457 5.8281c0.73047 2.9141 1.457 6.5586 1.457 9.4727 0 20.402-16.758 36.43-36.43 36.43zm306.73 0h-276.86c10.199-8.7422 16.758-21.859 16.758-36.43 0-1.457 0-3.6445-0.73047-5.1016h289.25v8.7422c1.4609 19.676-11.656 32.789-28.414 32.789z"/>
 </g>
 <path d="m356.33 215.71h147.18v10.93h-147.18z"/>
 <path d="m356.33 250.68h107.1v10.93h-107.1z"/>
 <path d="m356.33 286.39h91.074v10.93h-91.074z"/>
 <path d="m505.69 491.12h-29.875v-123.13h-10.926v123.13h-33.516v-78.688h-10.93v78.688h-33.516v-102h-10.93v102h-33.512v-111.47h-10.93v111.47h-32.789v-67.027h-10.926v67.027h-29.875v10.93h247.72z"/>
</svg>
